# xmcd CD database file
#
# Track frame offsets:
#	150
#	24142
#	42933
#	70193
#	91013
#	118764
#	138080
#	157642
#	179885
#	206455
#	222191
#	241635
#	264632
#	289929
#	310530
#
# Disc length: 4450 seconds
#
# Revision: 0
# Processed by: cddbd v1.4PL0 Copyright (c) Steve Scherf et al.
# Submitted via: CDex 1.50Beta3
#
DISCID=c311600f
DTITLE=Raulin Rosendo - El Disco De Oro - CD1
DYEAR=1997
DGENRE=Salsa
TTITLE0=La Rebelion
TTITLE1=Barranquillero Arrebatao
TTITLE2=Cruz De Navajas
TTITLE3=Mi Pequena Nathalie
TTITLE4=Margarita
TTITLE5=La Guayaba
TTITLE6=Somos
TTITLE7=Pegaso
TTITLE8=Los Rosales
TTITLE9=Llora Corazon
TTITLE10=En Bancarrota
TTITLE11=Por Ella
TTITLE12=Disimula
TTITLE13=Te Lo Pido Por Favor
TTITLE14=Me Estoy Volviendo Loco
EXTD=YEAR: 1997
EXTT0=
EXTT1=
EXTT2=
EXTT3=
EXTT4=
EXTT5=
EXTT6=
EXTT7=
EXTT8=
EXTT9=
EXTT10=
EXTT11=
EXTT12=
EXTT13=
EXTT14=
PLAYORDER=
